<?xml version="1.0" encoding="UTF-8" standalone="no"?>
<svg
   xmlns:dc="http://purl.org/dc/elements/1.1/"
   xmlns:cc="http://creativecommons.org/ns#"
   xmlns:rdf="http://www.w3.org/1999/02/22-rdf-syntax-ns#"
   xmlns:svg="http://www.w3.org/2000/svg"
   xmlns="http://www.w3.org/2000/svg"
   xmlns:sodipodi="http://sodipodi.sourceforge.net/DTD/sodipodi-0.dtd"
   xmlns:inkscape="http://www.inkscape.org/namespaces/inkscape"
   width="300"
   height="300"
   version="1.1"
   id="svg9"
   sodipodi:docname="minimap-reminder-icon-new.svg"
   inkscape:version="1.0.2-2 (e86c870879, 2021-01-15)">
  <metadata
     id="metadata15">
    <rdf:RDF>
      <cc:Work
         rdf:about="">
        <dc:format>image/svg+xml</dc:format>
        <dc:type
           rdf:resource="http://purl.org/dc/dcmitype/StillImage" />
      </cc:Work>
    </rdf:RDF>
  </metadata>
  <defs
     id="defs13" />
  <sodipodi:namedview
     pagecolor="#ffffff"
     bordercolor="#666666"
     borderopacity="1"
     objecttolerance="10"
     gridtolerance="10"
     guidetolerance="10"
     inkscape:pageopacity="0"
     inkscape:pageshadow="2"
     inkscape:window-width="2560"
     inkscape:window-height="1377"
     id="namedview11"
     showgrid="false"
     inkscape:zoom="2.8284271"
     inkscape:cx="120.17147"
     inkscape:cy="141.44512"
     inkscape:window-x="-8"
     inkscape:window-y="1376"
     inkscape:window-maximized="1"
     inkscape:current-layer="svg9" />
  <path
     style="display:inline;fill:none;stroke-width:0.353553"
     d="M 2.7917441,138.7046 V 2.4986405 H 138.9977 275.20366 L 226.76782,50.935455 178.33197,99.372269 H 138.8219 99.311819 v 39.510071 39.51008 L 51.051782,226.65149 2.7917441,274.91055 Z"
     id="path928" />
  <path
     style="display:inline;fill:none;stroke-width:0.353553"
     d="M 2.7917441,138.7046 V 2.4986405 H 138.9977 275.20366 L 226.76782,50.935455 178.33197,99.372269 H 138.8219 99.311819 v 39.510071 39.51008 L 51.051782,226.65149 2.7917441,274.91055 Z"
     id="path930" />
  <path
     style="display:inline;fill:none;stroke-width:0.353553"
     d="M 2.7917441,138.7046 V 2.4986405 H 138.9977 275.20366 L 226.76782,50.935455 178.33197,99.372269 H 138.8219 99.311819 v 39.510071 39.51008 L 51.051782,226.65149 2.7917441,274.91055 Z"
     id="path932" />
  <path
     style="display:inline;fill:none;stroke-width:0.353553"
     d="M 2.7917441,138.7046 V 2.4986405 H 138.9977 275.20366 L 226.76782,50.935455 178.33197,99.372269 H 138.8219 99.311819 v 39.510071 39.51008 L 51.051782,226.65149 2.7917441,274.91055 Z"
     id="path934" />
  <path
     style="display:inline;fill:#d4066e;fill-opacity:1;stroke-width:0.353553"
     d="M 2.7917441,138.7046 V 2.4986405 H 138.9977 275.20366 L 226.76782,50.935455 178.33197,99.372269 H 138.8219 99.311819 v 39.510071 39.51008 L 51.051782,226.65149 2.7917441,274.91055 Z"
     id="path936" />
  <path
     style="display:inline;opacity:1;fill:#d4066e;fill-opacity:1;stroke-width:0.353553"
     d="m 73.325645,248.92535 48.435845,-48.43681 h 39.51008 39.51007 V 160.97846 121.46838 L 249.04168,73.209318 297.30172,24.950252 V 161.15621 297.36217 H 161.09576 24.889799 Z"
     id="path938"
     inkscape:label="path938" />
</svg>
